<?xml version="1.0" standalone="no"?>
<!DOCTYPE svg PUBLIC "-//W3C//DTD SVG 20010904//EN"
 "http://www.w3.org/TR/2001/REC-SVG-20010904/DTD/svg10.dtd">
<svg version="1.0" xmlns="http://www.w3.org/2000/svg"
 width="260.000000pt" height="260.000000pt" viewBox="0 0 260.000000 260.000000"
 preserveAspectRatio="xMidYMid meet">
<metadata>
Created by potrace 1.11, written by Peter Selinger 2001-2013
</metadata>
<g transform="translate(0.000000,260.000000) scale(0.100000,-0.100000)"
fill="#000000" stroke="none">
<path d="M678 2595 c-2 -3 -13 -6 -24 -8 -10 -2 -26 -6 -34 -10 -36 -13 -55
-18 -57 -15 -1 2 -9 -6 -18 -17 -9 -11 -14 -13 -10 -5 4 10 2 9 -8 -2 -8 -10
-17 -15 -20 -11 -4 3 -7 1 -7 -5 0 -7 -5 -12 -10 -12 -18 0 -150 -124 -150
-141 0 -6 -4 -7 -10 -4 -9 6 -14 -8 -11 -27 0 -5 -3 -8 -8 -8 -8 0 -81 -94
-81 -104 0 -3 -18 -32 -40 -65 -22 -33 -40 -63 -40 -66 0 -4 -9 -20 -21 -36
-11 -16 -17 -29 -12 -29 4 0 3 -4 -3 -8 -13 -8 -89 -163 -86 -174 1 -5 -2 -8
-8 -8 -5 0 -7 -7 -4 -15 4 -8 1 -15 -4 -15 -15 0 -6 -39 13 -60 8 -9 23 -16
33 -15 28 2 62 24 62 40 0 8 5 15 10 15 6 0 10 7 10 15 0 8 5 15 11 15 5 0 8
4 4 9 -3 5 2 16 10 24 8 9 15 20 15 24 0 5 8 18 18 29 10 10 18 21 18 24 -1 8
56 83 78 103 10 9 16 17 12 17 -4 0 -1 7 8 15 8 8 19 15 25 15 6 0 11 5 11 10
0 14 51 59 68 60 6 0 12 3 12 8 0 7 69 44 135 73 17 7 43 13 58 14 15 0 32 7
37 15 7 10 10 11 10 3 0 -15 21 -13 32 2 5 6 8 6 8 -1 0 -7 11 -11 24 -10 13
0 22 4 19 9 -2 4 1 7 6 7 6 0 11 -4 11 -9 0 -5 11 -8 24 -7 13 0 22 4 19 9 -2
4 1 7 6 7 6 0 11 -4 11 -9 0 -5 11 -8 24 -7 13 0 22 4 19 9 -2 4 1 7 6 7 6 0
11 -4 11 -9 0 -5 11 -8 24 -7 13 0 22 4 19 9 -2 4 1 7 6 7 6 0 11 -5 11 -11 0
-8 5 -8 15 1 11 9 15 9 15 1 0 -8 5 -9 19 -2 16 9 18 7 15 -17 -7 -52 -23
-133 -29 -142 -2 -4 -7 -22 -10 -41 -4 -19 -8 -38 -9 -44 -1 -5 -5 -16 -9 -22
-5 -7 -6 -13 -3 -13 3 0 1 -12 -5 -27 -7 -16 -12 -37 -13 -48 -1 -11 -5 -26
-10 -33 -4 -7 -5 -16 -2 -19 3 -3 -1 -18 -10 -34 -8 -16 -12 -29 -10 -29 3 0
-1 -18 -9 -40 -8 -22 -14 -42 -14 -45 -1 -16 -15 -63 -24 -80 -6 -11 -12 -31
-13 -45 -1 -14 -3 -26 -4 -27 -1 -2 -3 -6 -5 -10 -1 -5 -5 -21 -10 -38 -4 -16
-14 -43 -22 -59 -10 -18 -11 -26 -3 -21 8 5 8 0 -1 -16 -7 -13 -14 -26 -14
-29 -7 -30 -19 -67 -24 -75 -3 -5 -6 -15 -7 -22 -3 -19 -25 -86 -35 -108 -5
-11 -10 -30 -12 -42 -2 -11 -9 -28 -16 -37 -7 -9 -11 -16 -7 -16 3 0 0 -16 -8
-35 -9 -20 -15 -36 -15 -38 0 -3 -9 -32 -18 -54 -3 -10 -7 -20 -7 -23 -4 -24
-43 -126 -49 -131 -5 -3 -8 -9 -7 -13 3 -11 -31 -110 -43 -125 -10 -12 -9 -13
2 -7 10 7 10 3 -2 -15 -8 -13 -25 -55 -38 -94 -13 -38 -27 -71 -31 -73 -4 -2
-4 -10 -1 -18 3 -8 0 -14 -7 -14 -6 0 -9 -4 -5 -9 3 -5 1 -12 -5 -16 -5 -3
-10 -16 -10 -27 0 -12 -8 -30 -17 -41 -13 -15 -14 -18 -3 -12 12 7 13 6 4 -6
-16 -20 -56 -131 -50 -137 3 -2 1 -13 -5 -23 -6 -12 -6 -19 0 -19 5 0 7 -8 5
-18 -6 -27 28 -84 65 -109 37 -25 99 -31 120 -10 11 10 12 9 6 -2 -5 -8 8 -2
28 14 20 16 44 45 54 65 10 19 22 38 26 41 4 3 10 18 13 34 3 16 8 33 12 39 3
6 8 16 9 21 1 6 4 19 7 30 2 11 5 20 6 20 2 0 7 19 15 57 3 15 10 39 15 54 6
15 8 29 6 32 -3 2 -1 12 4 22 5 9 12 30 14 46 3 16 10 43 15 61 5 17 7 34 3
37 -3 3 -1 6 5 6 5 0 9 15 8 34 0 19 2 33 6 30 6 -3 24 87 22 114 0 6 3 12 8
12 4 0 6 9 4 20 -2 11 1 20 6 20 6 0 9 8 8 18 -1 9 3 44 11 77 7 33 14 67 15
75 3 16 12 60 20 100 9 41 17 84 18 103 1 9 4 17 7 17 3 0 6 9 7 21 1 11 8 46
14 77 7 31 13 65 12 75 0 9 3 17 8 17 4 0 6 10 4 22 -3 12 0 27 6 35 7 7 9 13
6 13 -3 0 -2 14 3 32 5 17 12 49 16 72 3 22 7 44 10 47 2 4 7 24 10 45 8 48
12 69 14 69 1 0 3 11 6 25 2 14 6 39 9 55 3 17 7 39 8 50 1 11 5 25 8 30 4 6
9 26 12 45 4 19 9 51 13 70 4 19 7 43 8 53 0 9 4 17 9 17 4 0 6 4 3 8 -8 13
31 164 45 173 7 4 19 3 26 -3 10 -8 13 -7 13 3 0 12 2 12 9 0 6 -10 13 -10 28
-2 11 5 24 7 28 3 9 -10 55 -10 49 0 -3 4 0 8 5 8 6 0 11 -4 11 -9 0 -5 11 -8
24 -7 13 0 22 4 19 9 -2 4 1 7 6 7 6 0 11 -4 11 -9 0 -5 11 -8 24 -7 13 0 22
4 19 9 -2 4 1 7 6 7 6 0 11 -4 11 -9 0 -5 11 -8 24 -7 13 0 22 4 19 9 -2 4 1
7 6 7 6 0 11 -4 11 -9 0 -5 11 -8 24 -7 13 0 22 4 19 9 -2 4 0 7 6 7 5 0 11
-6 14 -12 3 -10 7 -10 20 1 10 7 17 9 17 4 0 -11 29 -11 48 1 7 4 12 2 12 -4
0 -6 4 -9 9 -6 4 3 6 -7 4 -22 -3 -15 -5 -39 -6 -54 -1 -16 -4 -28 -7 -28 -3
0 -7 -12 -8 -27 -2 -27 -16 -110 -27 -163 -3 -14 -8 -36 -10 -50 -2 -14 -6
-36 -9 -50 -3 -14 -7 -41 -10 -60 -3 -19 -7 -44 -10 -55 -2 -11 -7 -40 -11
-65 -9 -56 -13 -78 -20 -110 -3 -14 -8 -45 -11 -70 -10 -82 -12 -95 -14 -95
-3 0 -11 -80 -13 -127 -1 -27 -4 -48 -8 -48 -3 0 -6 -19 -7 -42 -3 -51 -11
-98 -18 -110 -3 -4 0 -8 7 -8 7 0 8 -4 2 -13 -5 -6 -9 -47 -9 -89 1 -43 -1
-78 -4 -78 -3 0 -5 -16 -5 -35 0 -19 5 -35 10 -35 6 0 4 -4 -3 -9 -8 -4 -14
-12 -14 -16 0 -4 6 -12 14 -16 7 -5 8 -9 3 -9 -10 0 -11 -161 -1 -187 3 -7 1
-15 -5 -18 -5 -4 -6 -12 -2 -18 4 -7 8 -25 10 -42 8 -99 14 -152 20 -165 3 -8
7 -24 9 -35 1 -11 5 -33 9 -50 3 -16 9 -46 12 -65 2 -19 9 -39 14 -44 5 -6 9
-18 9 -28 0 -10 5 -18 12 -18 6 0 8 -3 5 -6 -10 -11 24 -60 53 -78 29 -17 110
-20 110 -4 0 5 4 7 9 3 6 -3 14 3 20 12 6 10 11 15 11 10 0 -15 59 46 70 74 7
16 16 29 20 29 5 0 7 11 5 25 -1 14 1 25 5 25 12 0 2 92 -15 132 -8 21 -12 38
-8 38 4 0 2 5 -5 12 -7 7 -12 22 -12 34 0 13 -5 26 -10 29 -6 4 -10 12 -9 18
2 7 -3 32 -10 56 -7 24 -13 52 -14 62 -1 11 -5 19 -9 19 -3 0 -7 8 -6 18 0 9
-3 33 -7 52 -3 19 -8 44 -9 55 -2 11 -4 20 -5 20 -3 0 -11 73 -14 117 -1 21
-4 38 -7 38 -3 0 -5 15 -6 33 0 17 -4 73 -8 122 -6 72 -8 309 -4 532 0 22 4
30 12 26 7 -4 6 -1 -1 9 -7 8 -11 17 -9 19 3 2 7 42 11 89 3 47 8 101 11 120
2 19 6 55 9 80 8 82 14 125 21 165 4 22 8 49 9 60 5 53 18 115 23 111 2 -3 14
-1 25 5 15 8 18 8 12 -1 -6 -9 -3 -9 13 -1 15 8 21 8 25 -2 3 -9 7 -9 19 1 12
10 17 10 20 1 3 -9 9 -9 24 -1 15 8 24 8 32 0 9 -9 12 -8 12 3 0 11 2 12 9 0
6 -10 13 -10 28 -3 14 8 23 8 31 0 9 -9 12 -8 12 3 0 11 2 12 9 0 6 -10 13
-10 28 -3 14 8 23 8 31 0 9 -9 12 -8 12 3 0 11 2 12 9 0 6 -10 13 -11 29 -2
11 6 23 7 26 2 6 -9 49 -7 67 5 8 5 9 3 4 -5 -6 -10 -3 -11 13 -2 15 8 21 8
24 -1 3 -8 9 -8 24 0 13 7 25 7 37 1 12 -7 17 -6 17 1 0 7 8 9 19 5 11 -3 22
-1 26 5 3 5 17 10 31 10 13 0 24 5 24 12 0 6 3 9 6 5 7 -7 54 46 54 62 0 6 4
11 9 11 6 0 10 8 10 18 3 119 2 135 -11 143 -7 5 -9 9 -4 9 5 0 -3 11 -18 25
-15 14 -31 23 -36 20 -5 -3 -11 -1 -15 5 -6 10 -1817 15 -1827 5z"/>
</g>
</svg>
